HIERARCHY
ROOT root
{
	OFFSET 0.000000 0.000000 0.000000
	CHANNELS 6 Xposition Yposition Zposition Zrotation Yrotation Xrotation
	JOINT lhip
	{
		OFFSET 0.058581 -0.082280 -0.017664
		CHANNELS 3 Zrotation Yrotation Xrotation
		JOINT lknee
		{
			OFFSET 0.043451 -0.386469 0.008037
			CHANNELS 3 Zrotation Yrotation Xrotation
			JOINT lankle
			{
				OFFSET -0.014790 -0.426874 -0.037428
				CHANNELS 3 Zrotation Yrotation Xrotation
				JOINT ltoe
				{
					OFFSET 0.041054 -0.060286 0.122042
					CHANNELS 3 Zrotation Yrotation Xrotation
					End Site
					{
						OFFSET 0.000000 0.000000 0.000000
					}
				}
			}
		}
	}
	JOINT rhip
	{
		OFFSET -0.060310 -0.090513 -0.013543
		CHANNELS 3 Zrotation Yrotation Xrotation
		JOINT rknee
		{
			OFFSET -0.043257 -0.383688 -0.004843
			CHANNELS 3 Zrotation Yrotation Xrotation
			JOINT rankle
			{
				OFFSET 0.019056 -0.420046 -0.034562
				CHANNELS 3 Zrotation Yrotation Xrotation
				JOINT rtoe
				{
					OFFSET -0.034840 -0.062106 0.130323
					CHANNELS 3 Zrotation Yrotation Xrotation
					End Site
					{
						OFFSET 0.000000 0.000000 0.000000
					}
				}
			}
		}
	}
	JOINT lowerback
	{
		OFFSET 0.004439 0.124404 -0.038385
		CHANNELS 3 Zrotation Yrotation Xrotation
		JOINT upperback
		{
			OFFSET 0.004488 0.137956 0.026820
			CHANNELS 3 Zrotation Yrotation Xrotation
			JOINT chest
			{
				OFFSET -0.002265 0.056032 0.002855
				CHANNELS 3 Zrotation Yrotation Xrotation
				JOINT lowerneck
				{
					OFFSET -0.013390 0.211636 -0.033468
					CHANNELS 3 Zrotation Yrotation Xrotation
					JOINT upperneck
					{
						OFFSET 0.010113 0.088937 0.050410
						CHANNELS 3 Zrotation Yrotation Xrotation
						End Site
						{
							OFFSET 0.000000 0.000000 0.000000
						}
					}
				}
				JOINT lclavicle
				{
					OFFSET 0.071702 0.114000 -0.018898
					CHANNELS 3 Zrotation Yrotation Xrotation
					JOINT lshoulder
					{
						OFFSET 0.122921 0.045205 -0.019046
						CHANNELS 3 Zrotation Yrotation Xrotation
						JOINT lelbow
						{
							OFFSET 0.255332 -0.015649 -0.022946
							CHANNELS 3 Zrotation Yrotation Xrotation
							JOINT lwrist
							{
								OFFSET 0.265709 0.012698 -0.007375
								CHANNELS 3 Zrotation Yrotation Xrotation
								End Site
								{
									OFFSET 0.000000 0.000000 0.000000
								}
							}
						}
					}
				}
				JOINT rclavicle
				{
					OFFSET -0.082954 0.112472 -0.023707
					CHANNELS 3 Zrotation Yrotation Xrotation
					JOINT rshoulder
					{
						OFFSET -0.113228 0.046853 -0.008472
						CHANNELS 3 Zrotation Yrotation Xrotation
						JOINT relbow
						{
							OFFSET -0.260127 -0.014369 -0.031269
							CHANNELS 3 Zrotation Yrotation Xrotation
							JOINT rwrist
							{
								OFFSET -0.269108 0.006794 -0.006027
								CHANNELS 3 Zrotation Yrotation Xrotation
								End Site
								{
									OFFSET 0.000000 0.000000 0.000000
								}
							}
						}
					}
				}
			}
		}
	}
}
MOTION
Frames: 12
Frame Time: 0.033333
-0.509837 0.418678 0.932856 91.992022 -0.257549 89.244275 11.318330 15.637392 -16.452611 -17.335703 5.733893 37.863470 3.529618 15.982828 -30.424568 0.000000 -0.000000 0.000000 -1.945825 -13.010991 -20.228878 10.795875 -6.271995 43.094921 1.585191 -19.816885 -34.973648 0.000000 -0.000000 0.000000 -1.810943 -1.686524 12.583408 1.086416 -1.676519 -13.011231 0.711355 0.474653 -1.170628 2.195158 -8.027502 -20.144601 -0.877494 -9.511709 3.380777 5.731641 4.645847 -14.186238 21.967925 -0.842174 -19.942512 42.565634 -49.708890 -70.235916 9.743562 -17.459568 -51.321341 -5.347396 3.789481 -23.176213 -29.499318 14.215306 -27.455912 -34.969213 36.548171 -57.994613 1.995476 17.947157 -21.750412 
-0.511114 0.418859 0.936836 92.335976 -0.136688 89.825835 10.908410 15.315953 -16.823781 -16.903888 5.410148 36.946848 3.567896 15.568174 -30.072244 0.000000 -0.000000 0.000000 -1.569763 -13.027959 -20.360552 10.516891 -6.209220 41.926495 1.657992 -19.883527 -34.446371 0.000000 -0.000000 0.000000 -1.966826 -1.683363 12.830688 0.822438 -1.625982 -13.142087 0.653803 0.371332 -1.193010 2.549369 -8.598843 -20.565956 -0.417774 -9.460454 2.755445 4.862504 5.405164 -13.886932 21.204165 -0.732781 -19.997301 45.927161 -50.117543 -72.741071 8.717270 -18.218456 -52.483395 -4.836727 3.074573 -22.804109 -28.477512 13.709645 -26.880742 -37.537109 37.464449 -60.278570 2.641109 18.442502 -22.630953 
-0.511754 0.418728 0.941791 92.604701 0.148346 90.336044 10.934283 14.979156 -16.728334 -16.600351 5.370869 35.439910 3.341749 15.362730 -29.634458 0.000000 -0.000000 0.000000 -1.034943 -12.811041 -20.102753 10.236350 -6.249247 40.266720 1.730684 -19.788020 -33.535147 0.000000 -0.000000 0.000000 -1.978516 -1.580879 13.104471 0.607675 -1.621655 -12.835777 0.592666 0.543388 -1.381301 2.640459 -9.011011 -20.891268 0.163082 -9.708255 2.080799 4.192507 5.783856 -13.666466 20.373205 -0.181379 -19.472293 48.627869 -50.731640 -74.767778 8.875170 -17.913053 -52.731841 -4.480323 2.607122 -22.374748 -27.524454 12.678298 -26.267552 -40.396345 38.477980 -62.252799 1.966380 18.067351 -22.810433 
-0.513299 0.418849 0.946509 92.928584 0.335164 90.898240 10.641458 14.330608 -16.899686 -16.700218 4.555668 34.106680 2.972197 15.734230 -29.915025 0.000000 -0.000000 0.000000 -0.602315 -12.554942 -20.071777 10.064773 -6.187283 38.722939 2.153791 -19.910797 -32.788395 0.000000 -0.000000 0.000000 -2.052536 -1.482504 13.457647 0.352942 -1.495915 -12.697946 0.495700 0.612437 -1.069864 2.675251 -9.508396 -21.096864 0.549933 -9.946887 1.311986 3.311407 6.436429 -13.323192 19.518673 0.052655 -18.451420 51.760837 -50.985003 -76.750990 10.832512 -16.460942 -52.922927 -3.961517 2.211250 -22.243437 -27.078901 11.813862 -25.628021 -42.944929 39.364462 -63.726045 0.502192 17.744464 -23.720641 
-0.515498 0.418751 0.949621 93.126458 0.277138 91.346948 10.137548 14.037218 -17.297790 -16.922001 3.659772 33.334071 2.996424 14.905413 -29.630608 0.000000 -0.000000 0.000000 -0.404944 -12.267270 -20.436005 9.654675 -6.353530 38.041834 2.509540 -20.116044 -32.129344 0.000000 -0.000000 0.000000 -2.379826 -1.360315 14.012644 -0.030506 -1.356455 -12.266890 0.281841 0.750114 -0.753877 2.879141 -9.776883 -21.184800 0.920484 -10.236319 0.465508 2.758890 7.259938 -13.092178 18.436989 0.143468 -17.672178 55.073733 -51.654801 -79.159547 13.199913 -14.123308 -52.732208 -3.511540 1.676391 -22.019579 -26.209735 11.338449 -25.093698 -45.913033 39.901728 -66.285619 -2.312135 16.828289 -23.414628 
-0.518861 0.419558 0.950256 93.607043 0.384231 91.726926 9.695344 13.295948 -18.283449 -17.230889 2.490950 33.625014 2.491270 14.549873 -29.746351 0.000000 -0.000000 0.000000 -0.068033 -12.389003 -21.067042 9.168449 -6.491682 37.936536 2.544686 -20.355659 -31.543617 0.000000 -0.000000 0.000000 -2.224837 -1.211324 14.890128 -0.511091 -1.237425 -11.937084 -0.035502 0.787152 -0.111916 2.859866 -10.570535 -21.255239 1.583787 -10.583562 -0.075323 2.313341 8.152103 -12.495318 16.319332 0.181478 -16.177231 60.661870 -51.960416 -82.619518 17.805598 -10.172210 -51.991528 -3.853424 0.853943 -21.627408 -24.250789 10.497524 -24.156102 -49.946581 40.386501 -69.146572 -6.607397 15.558665 -23.547278 
-0.522881 0.421086 0.948280 94.007200 0.518360 91.745564 9.412675 12.524976 -19.295735 -17.423225 1.980969 34.577044 3.095390 14.820967 -29.295220 0.000000 -0.000000 0.000000 -0.001885 -12.165766 -21.706649 9.102115 -6.676743 38.689344 2.930322 -20.651886 -31.597189 0.000000 -0.000000 0.000000 -1.967388 -1.193857 16.236757 -1.085454 -1.034761 -11.330578 -0.294974 0.847527 0.620385 2.831065 -11.640689 -21.158430 2.658347 -10.425238 -1.744289 1.413052 8.929017 -12.320450 13.685932 0.333046 -14.967519 67.355405 -52.906304 -86.954839 23.327117 -5.837943 -50.477429 -4.348066 0.162669 -20.586144 -21.784906 8.770293 -22.796278 -55.379418 41.289681 -73.383452 -13.727473 13.980212 -23.613972 
-0.526741 0.422749 0.943273 94.492319 0.650936 91.751694 9.274620 12.434547 -20.620292 -17.208567 2.197714 36.244176 4.202301 14.963146 -27.958780 0.000000 -0.000000 0.000000 -0.152658 -12.136840 -22.571594 8.784620 -7.587888 40.022584 2.710955 -20.434095 -31.938612 0.000000 -0.000000 0.000000 -1.685901 -0.985055 17.892126 -1.583035 -0.769584 -10.722090 -0.748922 0.952624 0.811569 2.962375 -12.003181 -20.533522 3.442039 -11.128101 -2.562284 0.420479 9.421952 -11.735077 10.234485 0.221470 -13.949919 73.868319 -53.964018 -89.989884 26.686865 -3.266381 -49.067163 -4.384669 -0.778092 -19.696713 -18.813375 7.069067 -21.317056 -61.034495 42.688516 -75.466685 -20.934301 12.507894 -22.299886 
-0.530928 0.424515 0.935782 94.995731 0.818001 91.953882 9.406409 12.582552 -22.335616 -17.013579 2.939037 38.309978 4.919569 14.062488 -27.339166 0.000000 -0.000000 0.000000 -0.214236 -12.535185 -24.074847 8.303572 -8.615049 42.097525 2.146429 -19.893232 -32.079567 0.000000 -0.000000 0.000000 -1.562171 -0.840144 19.551105 -1.969750 -0.526327 -10.657788 -1.012349 0.865257 1.198036 3.251931 -12.457494 -20.149157 4.041730 -11.958425 -2.203455 -1.441191 9.848053 -10.939988 7.235124 0.576194 -13.243602 78.071585 -55.559499 -90.950223 28.023870 -3.954126 -47.876742 -3.550639 -1.519910 -18.606932 -16.200186 5.505351 -20.319158 -64.530569 44.315303 -74.411057 -25.631297 13.968419 -17.394848 
-0.534389 0.426654 0.926980 95.742159 1.018050 92.668586 9.649333 12.594742 -24.766817 -17.165450 3.866148 40.790210 5.159061 13.196711 -27.742274 0.000000 -0.000000 0.000000 -0.451584 -12.899051 -26.162581 8.137160 -9.819967 44.532568 1.888120 -19.466573 -32.100058 0.000000 -0.000000 0.000000 -1.693563 -0.686265 20.443417 -1.991638 -0.521019 -10.542370 -1.169199 0.656716 1.338606 3.780124 -13.097314 -19.432799 4.576610 -12.918343 -1.508412 -3.819372 10.199930 -10.319441 4.285119 1.122294 -12.280151 79.053998 -57.714343 -87.714893 28.640744 -5.314010 -43.505932 -1.481262 -1.883798 -17.224605 -14.565387 3.890218 -19.833504 -64.545470 46.357663 -70.309095 -28.699674 15.886241 -12.207720 
-0.537046 0.429022 0.917547 96.423533 1.157561 93.308535 9.900049 13.108116 -26.965873 -17.531101 4.841300 43.055348 5.529408 12.341714 -28.355336 0.000000 -0.000000 0.000000 -0.617299 -13.565898 -28.201268 7.693218 -10.886474 47.114789 1.371987 -19.294093 -32.883905 0.000000 -0.000000 0.000000 -1.901921 -0.348741 21.460283 -2.034213 -0.475518 -10.414792 -1.318683 0.315758 1.470297 4.377885 -13.502822 -19.177822 5.234322 -13.942152 -1.131696 -6.661929 10.430673 -9.734733 2.311621 2.266748 -11.151215 74.106905 -60.654522 -79.336278 29.182986 -6.967493 -36.107718 0.837979 -2.461421 -16.217291 -12.870041 2.340929 -19.028614 -61.403826 48.223295 -65.820772 -29.795609 16.937678 -10.009863 
-0.539305 0.432339 0.909432 97.383338 1.421120 93.649518 10.046824 13.859754 -28.890559 -17.912298 5.285209 45.430161 5.822161 11.510781 -28.968676 0.000000 -0.000000 0.000000 -0.819217 -13.822248 -29.509058 7.836916 -11.502046 48.947855 1.353346 -19.691898 -33.580952 0.000000 -0.000000 0.000000 -1.608822 -0.443746 22.729939 -2.063290 -0.467340 -10.213566 -1.731066 0.019531 1.885021 4.772707 -14.061004 -19.881697 5.463582 -14.770702 -0.938155 -9.369438 10.570031 -9.387012 0.314718 2.584899 -10.029751 61.156186 -62.119523 -65.718476 30.848089 -7.078905 -30.663847 3.027306 -2.831178 -15.623425 -10.898318 1.504002 -17.933378 -56.885134 47.583387 -62.005615 -29.140700 16.581488 -9.221457 
